# xmcd CD database file
#
# Track frame offsets:
#	187
#	26680
#	61940
#	89397
#	127165
#	140702
#
# Disc length: 2371 seconds
#
# Revision: 0
# Processed by: cddbd v1.5.1PL2 Copyright (c) Steve Scherf et al.
# Submitted via: CDex 1.60beta1-cs1
#
DISCID=55094106
DTITLE=Ron Carter - Third Plane
DYEAR=1977
DGENRE=Jazz
TTITLE0=Third Plane
TTITLE1=Quiet Times
TTITLE2=Lawra
TTITLE3=Stella By Starlight
TTITLE4=United Blues
TTITLE5=Dolphin Dance
EXTD=YEAR: 1977
EXTT0=
EXTT1=
EXTT2=
EXTT3=
EXTT4=
EXTT5=
PLAYORDER=
